<svg width="934" height="190" viewBox="0 0 934 190" fill="none" xmlns="http://www.w3.org/2000/svg">
<path fill-rule="evenodd" clip-rule="evenodd" d="M38.433 30.4838H108.711L113.685 19.9834H38.433C30.3252 19.9834 24.3221 23.0036 17.8868 28.3634L17.8225 28.4169L9.08381 37.2019L9.06688 37.2199C3.94202 42.6653 0.612305 49.8723 0.612305 57.9983V159.805C0.612305 176.174 13.813 189.46 30.1171 189.46H120.899C128.554 189.46 135.292 186.871 140.841 181.66C141.529 181.015 142.163 180.426 142.767 179.867L142.78 179.854C145.353 177.47 147.341 175.628 150.027 172.455C155.695 165.758 158.719 159.775 158.719 151.445V68.0087L148.219 72.9826V150.253C148.219 160.749 139.71 169.257 129.214 169.257H38.433C27.9371 169.257 19.4286 160.749 19.4286 150.253V49.4882C19.4286 38.9924 27.9371 30.4838 38.433 30.4838ZM141.552 178.559L141.553 178.558L141.554 178.557L141.552 178.559Z" fill="#EBEADC"/>
<path fill-rule="evenodd" clip-rule="evenodd" d="M177.908 29.9288C177.908 13.6984 164.751 0.541016 148.521 0.541016C139.514 0.541016 131.454 4.59253 126.063 10.9724L119.878 19.1711C116.589 23.9171 114.662 29.6783 114.662 35.8896C114.662 52.12 127.819 65.2774 144.05 65.2774C153.19 65.2774 161.355 61.1049 166.745 54.5608L172.63 46.7372C175.957 41.9742 177.908 36.1794 177.908 29.9288ZM149.266 52.6107C162.204 52.6107 172.693 42.1221 172.693 29.1837C172.693 16.2453 162.204 5.75672 149.266 5.75672C136.327 5.75672 125.839 16.2453 125.839 29.1837C125.839 42.1221 136.327 52.6107 149.266 52.6107Z" fill="#EBEADC"/>
<path d="M139.545 36.77L134.279 37.4632V33.7525L139.315 33.0895C140.127 32.9825 140.771 32.72 141.246 32.3018C141.737 31.8816 142.089 31.3482 142.304 30.7015C142.534 30.0527 142.649 29.3496 142.649 28.592C142.649 27.8189 142.534 27.146 142.304 26.5733C142.074 25.9851 141.706 25.5465 141.2 25.2575C140.71 24.9665 140.058 24.8744 139.246 24.9814L134.279 25.6352V21.9245L139.476 21.2404C140.993 21.0406 142.319 21.2062 143.454 21.7371C144.588 22.2526 145.462 23.0575 146.075 24.1519C146.703 25.2287 147.018 26.517 147.018 28.0168C147.018 29.5011 146.711 30.8711 146.098 32.1269C145.485 33.3827 144.619 34.4244 143.5 35.252C142.381 36.0642 141.062 36.5702 139.545 36.77ZM136.969 37.109L132.831 37.6539V22.1152L136.969 21.5703V37.109Z" fill="#EBEADC"/>
<path d="M152.62 35.0485L148.481 35.5934V20.0548L154.23 19.298L155.747 23.6206L157.104 28.8226L158.461 23.2634L159.978 18.5412L165.727 17.7844V33.323L161.588 33.8679V29.8325L162.255 22.1145L160.323 28.3988L159.334 31.3815L154.874 31.9688L153.885 29.2464L151.954 23.4707L152.62 31.0131V35.0485Z" fill="#EBEADC"/>
<path fill-rule="evenodd" clip-rule="evenodd" d="M59.6679 69.1539C59.6735 66.6859 59.6808 63.4501 59.6764 60.985L95.2065 60.9757V71.3716C94.5387 72.1815 93.6416 72.9289 92.6495 73.2431C91.6549 73.558 90.046 73.6107 87.6869 71.5465C84.7718 68.9957 81.8813 66.7197 78.9922 65.7391C77.4732 65.2234 75.8627 65.0297 74.2075 65.3874C72.5559 65.7443 71.0774 66.6031 69.7426 67.8412C67.7086 69.7278 65.2425 69.7839 60.3837 69.64L60.3681 69.6396C60.1386 69.6328 59.9048 69.6258 59.6669 69.6192L59.6678 69.1822L59.6679 69.155L59.6679 69.1539ZM100.562 58.297V72.2527C100.562 80.3852 98.1698 88.3254 94.088 94.3015C90.534 99.5049 85.5278 103.428 79.56 104.344V111.622C80.5556 111.017 81.6623 110.634 82.7397 110.408C85.7222 109.784 89.32 110.201 91.9712 111.654C96.2993 114.025 98.8306 117.548 101.395 122.446C103.732 121.983 106.187 121.196 108.67 120.394L108.923 120.312C111.647 119.432 114.608 118.475 117.034 118.334C118.323 118.259 119.813 118.384 121.143 119.153C122.581 119.986 123.446 121.343 123.824 122.947C124.374 125.286 123.306 127.945 120.506 130.252C120.905 130.321 121.29 130.404 121.66 130.504C123.413 130.975 125.698 132.078 126.285 134.661C126.558 135.862 126.435 137.058 125.903 138.143C125.396 139.179 124.601 139.947 123.79 140.515C123.023 141.052 122.127 141.489 121.171 141.849C121.227 141.882 121.282 141.915 121.337 141.948C122.96 142.94 124.455 144.536 124.623 146.9C124.723 148.301 124.453 149.827 123.308 151.055C122.257 152.183 120.825 152.66 119.544 152.904C117.116 153.367 113.51 153.268 109.052 153.146L108.653 153.135C104.744 153.029 99.927 152.898 94.0703 152.987C95.3577 158.35 96.8624 164.839 98.299 171.403L93.0671 172.548C91.3371 164.644 89.5068 156.844 88.0831 151.018C87.8911 150.233 88.0644 149.402 88.5547 148.759C89.0449 148.116 89.7996 147.729 90.608 147.706C98.1417 147.491 104.157 147.655 108.788 147.781L108.799 147.781C113.766 147.917 116.763 147.982 118.54 147.643C118.929 147.569 119.16 147.491 119.287 147.438C119.287 147.395 119.285 147.343 119.281 147.279L119.281 147.275C119.278 147.225 119.267 146.96 118.545 146.518C117.755 146.036 116.483 145.595 114.737 145.249C111.275 144.564 106.825 144.412 102.872 144.371C101.435 144.356 100.266 143.209 100.223 141.773C100.18 140.336 101.279 139.122 102.713 139.022C103.324 138.979 104.004 138.937 104.721 138.893L104.722 138.893L104.73 138.892C108.442 138.664 113.195 138.364 116.869 137.535C118.74 137.112 120.022 136.616 120.719 136.127C120.833 136.048 120.914 135.98 120.971 135.927C120.836 135.858 120.616 135.769 120.269 135.676C119.187 135.385 117.562 135.27 115.508 135.341C111.451 135.481 106.552 136.309 102.883 137C101.437 137.273 100.041 136.326 99.7592 134.881C99.4772 133.437 100.414 132.035 101.857 131.744C110.323 130.034 114.694 127.969 116.836 126.328C118.477 125.071 118.594 124.273 118.599 124.13C118.544 123.915 118.487 123.824 118.472 123.802C118.462 123.787 118.465 123.791 118.46 123.789C118.417 123.763 118.134 123.635 117.344 123.681C115.688 123.777 113.378 124.502 110.316 125.49L110.196 125.529C107.193 126.499 103.642 127.646 100.213 128.058C99.0883 128.193 98.0006 127.606 97.4961 126.592C94.674 120.919 92.6924 118.156 89.3976 116.351C87.9864 115.577 85.7111 115.258 83.8362 115.651C82.9242 115.841 82.3239 116.157 81.9976 116.452C81.7365 116.687 81.6162 116.925 81.6162 117.311C81.6162 117.565 81.7691 118.111 82.8239 119.013C83.8491 119.891 85.2337 120.69 86.7541 121.555L86.8349 121.601C87.7436 122.119 88.7534 122.693 89.5561 123.273C89.9761 123.576 90.4345 123.947 90.8285 124.388C91.2103 124.815 91.6814 125.473 91.8581 126.357C92.2791 128.462 91.5822 130.295 90.4018 131.683C89.2894 132.992 87.7414 133.935 86.2018 134.619C83.1081 135.992 79.2192 136.677 76.1208 136.75C76.0983 136.75 76.0758 136.751 76.0533 136.751C73.6056 136.747 69.9315 136.3 66.8068 135.03C63.8279 133.819 60.1906 131.312 60.4565 126.727C60.6012 124.232 62.0229 122.564 63.5434 121.476C64.9189 120.492 66.617 119.81 67.9313 119.283L68.0652 119.229C69.4781 118.661 70.4547 118.253 71.1156 117.789C71.4137 117.58 71.5246 117.439 71.5586 117.386L71.5624 117.38C71.573 117.364 71.5765 117.359 71.5765 117.311C71.5765 116.931 71.2907 116.165 69.6092 115.503C68.0133 114.875 66.0256 114.759 64.6554 115.121C60.6854 116.168 58.1318 118.145 56.6333 120.454C55.1205 122.785 54.5448 125.667 54.9268 128.733C55.6963 134.91 60.3457 141.543 68.1436 144.572C69.0219 144.913 69.6563 145.691 69.814 146.62L74.0427 171.527L68.7625 172.423L64.7799 148.966C56.051 145.017 50.5831 137.19 49.6121 129.395C49.0978 125.267 49.8433 121.078 52.1409 117.538C54.4527 113.976 58.1987 111.285 63.2896 109.942C65.856 109.265 69.0093 109.512 71.5702 110.519C72.4453 110.864 73.3719 111.354 74.2042 112.007V104.291C69.0404 103.298 64.3916 99.5282 60.9838 94.5872C56.9422 88.7272 54.3066 80.7902 54.3066 72.2527C54.3066 71.5923 54.3091 70.4878 54.312 69.1749L54.3121 69.1701C54.3202 65.5702 54.3318 60.4198 54.3068 58.3401C54.2981 57.6244 54.5763 56.9351 55.0793 56.4259C55.5822 55.9168 56.2681 55.6301 56.9838 55.6299L97.8837 55.6191C98.5941 55.619 99.2754 55.901 99.7778 56.4032C100.28 56.9055 100.562 57.5867 100.562 58.297ZM74.1919 122.173L74.2042 122.165V124.212L70.036 124.209L70.0626 124.198L70.2041 124.141C71.4234 123.652 72.9686 123.032 74.1919 122.173ZM68.8235 130.068C68.4143 129.902 68.0562 129.733 67.7437 129.563L84.3247 129.588C84.2293 129.633 84.1306 129.678 84.0288 129.724C81.7275 130.745 78.582 131.33 76.0285 131.395C74.0542 131.387 71.1244 131.003 68.8235 130.068ZM79.56 123.266C79.9681 123.601 80.4002 123.921 80.8406 124.223L79.56 124.22V123.266ZM119.276 147.591L119.276 147.594C119.276 147.594 119.277 147.59 119.279 147.581C119.278 147.586 119.277 147.589 119.276 147.591ZM121.164 136.059C121.162 136.059 121.151 136.05 121.136 136.029C121.159 136.047 121.166 136.058 121.164 136.059Z" fill="#EBEADC"/>
<path d="M229.63 144.749H202.679V125.919H228.453C232.611 125.919 235.906 125.016 238.339 123.212C240.849 121.407 242.654 118.936 243.752 115.797C244.929 112.659 245.518 109.168 245.518 105.323C245.518 101.4 244.929 97.9088 243.752 94.8489C242.575 91.7106 240.692 89.2391 238.103 87.4346C235.593 85.63 232.258 84.7277 228.1 84.7277H202.679V65.8976H229.277C237.044 65.8976 243.831 67.6237 249.637 71.0759C255.443 74.4496 259.915 79.1179 263.053 85.0808C266.27 90.9652 267.878 97.7127 267.878 105.323C267.878 112.855 266.309 119.603 263.171 125.566C260.032 131.528 255.6 136.236 249.872 139.688C244.145 143.062 237.397 144.749 229.63 144.749ZM216.449 144.749H195.265V65.8976H216.449V144.749Z" fill="#EBEADC"/>
<path d="M296.555 144.749H275.371V65.8976H296.555V144.749Z" fill="#EBEADC"/>
<path d="M329.425 144.749H308.241V65.8976H329.425L352.609 101.439L359.2 113.797L357.67 90.6122V65.8976H378.854V144.749H358.376L334.368 109.325L327.542 97.2027L329.425 122.741V144.749Z" fill="#EBEADC"/>
<path d="M411.715 144.749H390.531V65.8976H411.715L434.899 101.439L441.49 113.797L439.96 90.6122V65.8976H461.144V144.749H440.666L416.658 109.325L409.832 97.2027L411.715 122.741V144.749Z" fill="#EBEADC"/>
<path d="M494.005 144.749H472.821V65.8976H494.005V144.749ZM533.195 144.749H480.235V125.919H533.195V144.749ZM527.311 114.738H480.235V95.9081H527.311V114.738ZM533.195 84.7277H480.235V65.8976H533.195V84.7277Z" fill="#EBEADC"/>
<path d="M578.999 116.504H549.106V99.5565H578.528C580.568 99.5565 582.216 99.2819 583.471 98.7326C584.805 98.1834 585.785 97.3596 586.413 96.2612C587.119 95.0843 587.472 93.7113 587.472 92.1421C587.472 90.4945 587.119 89.1214 586.413 88.023C585.785 86.9246 584.805 86.1008 583.471 85.5515C582.216 85.0023 580.568 84.7277 578.528 84.7277H549.106V65.8976H578.293C584.412 65.8976 589.826 66.7606 594.534 68.4867C599.32 70.1344 603.046 72.802 605.714 76.4895C608.46 80.0987 609.833 84.8062 609.833 90.6122C609.833 96.4966 608.421 101.204 605.596 104.735C602.85 108.187 599.123 110.619 594.416 112.031C589.787 113.444 584.648 114.071 578.999 113.914V116.504ZM561.699 144.749H540.515V65.8976H561.699V144.749ZM613.128 144.749H589.002L575.939 123.683C574.37 121.093 572.683 119.25 570.878 118.151C569.074 117.053 566.563 116.504 563.346 116.504L581.352 112.973C585.275 113.287 588.453 114.111 590.885 115.444C593.317 116.7 595.357 118.308 597.005 120.27C598.653 122.231 600.261 124.467 601.83 126.978L613.128 144.749Z" fill="#EBEADC"/>
<path d="M677.847 145.69C669.452 145.69 662.194 143.886 656.074 140.277C650.033 136.668 645.365 131.803 642.07 125.683C638.853 119.563 637.244 112.738 637.244 105.206C637.244 97.595 638.853 90.7691 642.07 84.7277C645.365 78.6079 650.033 73.7435 656.074 70.1344C662.194 66.5253 669.452 64.7207 677.847 64.7207C683.496 64.7207 688.596 65.5837 693.146 67.3098C697.697 68.9575 701.659 71.3113 705.033 74.3711C708.485 77.431 711.31 81.0009 713.506 85.0808L695.853 100.263C695.147 97.6735 693.97 95.2412 692.323 92.9659C690.753 90.6906 688.753 88.8468 686.32 87.4346C683.888 85.9438 680.985 85.1985 677.611 85.1985C674.002 85.1985 670.864 86.0615 668.196 87.7876C665.607 89.4353 663.607 91.7498 662.194 94.7312C660.86 97.7127 660.194 101.204 660.194 105.206C660.194 109.128 660.86 112.62 662.194 115.68C663.607 118.661 665.607 121.015 668.196 122.741C670.864 124.389 674.002 125.213 677.611 125.213C680.985 125.213 683.888 124.506 686.32 123.094C688.753 121.603 690.753 119.72 692.323 117.445C693.97 115.091 695.147 112.659 695.853 110.148L713.506 125.33C711.31 129.41 708.485 132.98 705.033 136.04C701.659 139.1 697.697 141.493 693.146 143.219C688.596 144.867 683.496 145.69 677.847 145.69Z" fill="#EBEADC"/>
<path d="M739.151 144.749H717.967V65.8976H739.151V144.749ZM777.164 144.749H725.381V125.919H777.164V144.749Z" fill="#EBEADC"/>
<path d="M816.586 145.926C805.131 145.926 796.383 142.983 790.341 137.099C784.3 131.215 781.279 121.878 781.279 109.089V65.8976H802.463V109.325C802.463 114.895 803.679 118.975 806.112 121.564C808.544 124.075 812.074 125.33 816.704 125.33C821.49 125.33 825.059 124.075 827.413 121.564C829.767 118.975 830.944 114.895 830.944 109.325V65.8976H852.128V109.089C852.128 121.878 849.146 131.215 843.183 137.099C837.221 142.983 828.355 145.926 816.586 145.926Z" fill="#EBEADC"/>
<path d="M905.018 144.749H871.83V125.919H902.075C905.371 125.919 907.724 125.369 909.137 124.271C910.627 123.173 911.373 121.564 911.373 119.446C911.373 117.955 911.059 116.739 910.431 115.797C909.804 114.856 908.784 114.15 907.371 113.679C906.038 113.208 904.272 112.973 902.075 112.973H871.83V96.4966H900.31C902.036 96.4966 903.488 96.3004 904.665 95.9081C905.841 95.5158 906.744 94.8882 907.371 94.0251C907.999 93.1621 908.313 92.0636 908.313 90.7298C908.313 89.3176 907.999 88.1799 907.371 87.3169C906.744 86.3754 905.841 85.7085 904.665 85.3162C903.488 84.9239 902.036 84.7277 900.31 84.7277H871.83V65.8976H905.371C911.804 65.8976 916.826 66.8391 920.435 68.7221C924.122 70.5267 926.751 72.9589 928.32 76.0188C929.889 79.0787 930.674 82.374 930.674 85.9046C930.674 90.1414 929.771 93.5151 927.967 96.0258C926.162 98.5365 923.848 100.42 921.023 101.675C918.199 102.93 915.139 103.754 911.844 104.146C908.627 104.539 905.567 104.735 902.664 104.735C910.196 104.735 916.159 105.559 920.553 107.206C925.025 108.854 928.202 111.168 930.085 114.15C932.047 117.131 933.027 120.623 933.027 124.624C933.027 129.802 931.851 133.843 929.497 136.746C927.143 139.649 923.848 141.728 919.611 142.983C915.453 144.16 910.588 144.749 905.018 144.749ZM884.422 144.749H863.238V65.8976H884.422V144.749Z" fill="#EBEADC"/>
</svg>
