<svg width="554" height="644" viewBox="0 0 554 644" fill="none" xmlns="http://www.w3.org/2000/svg">
<path d="M451.332 364.611H422.957V357.557L437.276 344.974C437.943 344.378 438.469 343.851 438.855 343.395C439.277 342.939 439.575 342.5 439.75 342.079C439.926 341.623 440.014 341.149 440.014 340.658C440.014 340.026 439.856 339.517 439.54 339.131C439.259 338.71 438.855 338.394 438.329 338.183C437.803 337.973 437.206 337.867 436.539 337.867C435.451 337.867 434.398 338.131 433.38 338.657C432.398 339.148 431.503 340.008 430.695 341.237C429.923 342.43 429.292 344.062 428.8 346.133L421.904 340.131C422.43 337.674 423.431 335.621 424.905 333.972C426.379 332.287 428.204 331.006 430.38 330.129C432.591 329.251 435.03 328.812 437.697 328.812C440.294 328.812 442.523 329.269 444.383 330.181C446.243 331.094 447.665 332.41 448.647 334.13C449.665 335.814 450.174 337.815 450.174 340.131C450.174 341.43 449.963 342.641 449.542 343.764C449.121 344.887 448.524 345.94 447.752 346.922C446.98 347.905 446.05 348.853 444.962 349.765C443.874 350.643 442.663 351.502 441.33 352.345L437.539 354.766L432.538 357.451L440.751 356.188H451.332V364.611Z" fill="#D0B996"/>
<path d="M470.806 365.032C467.366 365.032 464.401 364.277 461.909 362.768C459.452 361.224 457.557 359.101 456.223 356.398C454.89 353.661 454.223 350.502 454.223 346.922C454.223 343.342 454.89 340.201 456.223 337.499C457.557 334.761 459.452 332.638 461.909 331.129C464.401 329.585 467.366 328.812 470.806 328.812C474.245 328.812 477.193 329.585 479.65 331.129C482.142 332.638 484.055 334.761 485.388 337.499C486.722 340.201 487.389 343.342 487.389 346.922C487.389 350.502 486.722 353.661 485.388 356.398C484.055 359.101 482.142 361.224 479.65 362.768C477.193 364.277 474.245 365.032 470.806 365.032ZM470.806 355.819C472.28 355.819 473.508 355.468 474.491 354.766C475.474 354.064 476.193 353.047 476.649 351.713C477.141 350.379 477.386 348.782 477.386 346.922C477.386 345.027 477.141 343.43 476.649 342.132C476.193 340.798 475.474 339.78 474.491 339.078C473.508 338.376 472.28 338.025 470.806 338.025C469.332 338.025 468.103 338.376 467.121 339.078C466.173 339.78 465.454 340.798 464.962 342.132C464.471 343.43 464.225 345.027 464.225 346.922C464.225 348.782 464.471 350.379 464.962 351.713C465.454 353.047 466.173 354.064 467.121 354.766C468.103 355.468 469.332 355.819 470.806 355.819Z" fill="#D0B996"/>
<path d="M520.017 364.611H491.642V357.557L505.961 344.974C506.628 344.378 507.154 343.851 507.54 343.395C507.961 342.939 508.26 342.5 508.435 342.079C508.611 341.623 508.698 341.149 508.698 340.658C508.698 340.026 508.541 339.517 508.225 339.131C507.944 338.71 507.54 338.394 507.014 338.183C506.487 337.973 505.891 337.867 505.224 337.867C504.136 337.867 503.083 338.131 502.065 338.657C501.083 339.148 500.188 340.008 499.38 341.237C498.608 342.43 497.977 344.062 497.485 346.133L490.589 340.131C491.115 337.674 492.115 335.621 493.589 333.972C495.064 332.287 496.889 331.006 499.064 330.129C501.276 329.251 503.715 328.812 506.382 328.812C508.979 328.812 511.208 329.269 513.068 330.181C514.928 331.094 516.35 332.41 517.332 334.13C518.35 335.814 518.859 337.815 518.859 340.131C518.859 341.43 518.648 342.641 518.227 343.764C517.806 344.887 517.209 345.94 516.437 346.922C515.665 347.905 514.735 348.853 513.647 349.765C512.559 350.643 511.348 351.502 510.015 352.345L506.224 354.766L501.223 357.451L509.436 356.188H520.017V364.611Z" fill="#D0B996"/>
<path d="M553.64 364.611H525.264V357.557L539.584 344.974C540.25 344.378 540.777 343.851 541.163 343.395C541.584 342.939 541.882 342.5 542.058 342.079C542.233 341.623 542.321 341.149 542.321 340.658C542.321 340.026 542.163 339.517 541.847 339.131C541.567 338.71 541.163 338.394 540.637 338.183C540.11 337.973 539.513 337.867 538.847 337.867C537.759 337.867 536.706 338.131 535.688 338.657C534.705 339.148 533.81 340.008 533.003 341.237C532.231 342.43 531.599 344.062 531.108 346.133L524.211 340.131C524.738 337.674 525.738 335.621 527.212 333.972C528.686 332.287 530.511 331.006 532.687 330.129C534.898 329.251 537.337 328.812 540.005 328.812C542.602 328.812 544.831 329.269 546.691 330.181C548.551 331.094 549.972 332.41 550.955 334.13C551.973 335.814 552.482 337.815 552.482 340.131C552.482 341.43 552.271 342.641 551.85 343.764C551.429 344.887 550.832 345.94 550.06 346.922C549.288 347.905 548.358 348.853 547.27 349.765C546.182 350.643 544.971 351.502 543.637 352.345L539.847 354.766L534.846 357.451L543.058 356.188H553.64V364.611Z" fill="#D0B996"/>
<path fill-rule="evenodd" clip-rule="evenodd" d="M267.553 89.21L291.509 91.3731L293.756 66.4851L294.235 37.4121L300.716 51.8174L324.25 94.3293L347.407 96.4202L355.459 7.24928L331.503 5.08622L328.979 33.0353L328.342 59.4105L322.15 44.763L299.561 2.20213L275.604 0.0390625L267.553 89.21ZM205.909 100.924L182.384 105.937L163.724 18.3692L187.249 13.3561L221.408 47.3403L231.651 59.5039L224.465 34.1185L218.617 6.67192L242.142 1.65878L260.802 89.2264L238.061 94.0724L203.016 60.4139L192.566 48.5674L200.701 76.4832L205.909 100.924ZM152.449 119.304L174.392 109.45L137.715 27.7738L115.772 37.6275L152.449 119.304ZM116.74 143.809L104.684 152.677L92.0892 161.941L85.3074 166.93L32.2561 94.806L39.0379 89.8175L51.6326 80.5534L63.3662 71.9226C70.471 66.6967 77.84 63.7094 85.4732 62.9608C93.0537 62.1404 100.285 63.4016 107.168 66.7442C114.069 69.9623 120.08 75.0519 125.2 82.0131C130.268 88.9026 133.372 96.1301 134.513 103.696C135.655 111.261 134.767 118.55 131.851 125.561C128.882 132.5 123.845 138.583 116.74 143.809ZM102.995 127.377L92.015 135.454L64.3016 97.777L74.9587 89.938C78.7623 87.1403 82.4193 85.7221 85.9299 85.6835C89.5123 85.5921 92.8974 86.5858 96.0854 88.6646C99.2206 90.6717 102.108 93.4693 104.747 97.0575C107.334 100.574 109.145 104.163 110.18 107.826C111.286 111.436 111.299 114.91 110.216 118.25C109.206 121.537 106.799 124.579 102.995 127.377ZM319.127 159.786H219.626C216.401 159.786 213.298 160.309 210.397 161.276L228.491 171.723C237.05 176.664 240.626 185.691 243.734 193.538L243.734 193.538L243.735 193.541C244.008 194.231 244.277 194.911 244.546 195.579C246.455 199.72 250.522 203.761 257.029 208.381C263.529 212.995 272.124 217.96 282.717 224.076C284.85 225.308 285.812 227.339 285.946 229.379C286.075 231.333 285.468 233.314 284.527 234.943C283.587 236.572 282.175 238.088 280.418 238.954C278.584 239.857 276.344 240.04 274.211 238.808C263.618 232.693 254.835 227.624 247.494 224.248C240.073 220.835 234.603 219.39 230.516 219.991C230.114 220.05 229.688 220.114 229.239 220.182C226.052 220.664 221.751 221.314 217.273 221.378C212.176 221.452 206.532 220.78 201.759 218.024L190.464 211.503V251.461C221.198 242.663 242.678 253.166 247.722 268.137C248.257 269.725 248.546 271.274 248.612 272.779C249.413 277.225 249.99 280.996 250.293 284.222C250.689 288.431 250.639 291.882 249.925 294.791C248.409 300.971 244.082 303.99 237.677 306.987C236.99 307.308 236.192 307.29 235.52 306.939L214.55 295.964L216.689 301.494C216.742 301.63 216.782 301.77 216.809 301.913L219.084 313.77C219.22 314.476 219.035 315.207 218.58 315.764C218.125 316.321 217.447 316.649 216.727 316.658C210.514 316.734 202.525 316.029 194.913 314.353C193.422 314.025 191.932 313.657 190.464 313.246V380.706C191.021 379.896 191.583 379.089 192.149 378.285C194.59 374.814 197.104 371.406 199.655 368.157C201.693 365.561 203.757 363.063 205.827 360.715C210.162 355.796 214.563 351.487 218.852 348.297C223.103 345.134 227.458 342.909 231.676 342.483C231.715 342.479 231.753 342.476 231.792 342.474C233.817 342.368 235.514 343.219 236.809 344.524C238.052 345.777 238.964 347.475 239.645 349.307C241.011 352.981 241.691 357.863 241.818 362.913C241.945 367.997 241.516 373.433 240.553 378.292C239.603 383.082 238.08 387.588 235.843 390.595C234.427 392.498 232.677 394.924 230.672 397.702L230.67 397.705C224.106 406.8 214.815 419.676 205.592 430.394C200.479 436.336 195.275 441.752 190.464 445.534V460.159C190.464 476.265 203.52 489.322 219.626 489.322H274.189L269.513 461.784C257.997 456.796 250.821 446.609 249.568 436.546C248.915 431.309 249.865 426.041 252.74 421.612C255.628 417.163 260.333 413.753 266.832 412.039C269.977 411.209 273.904 411.508 277.089 412.762C278.937 413.489 280.845 414.684 282.088 416.411V402.553C275.296 401.598 269.031 396.73 264.414 390.035C259.202 382.477 255.783 372.205 255.783 361.138C255.783 360.706 255.783 360.133 255.785 359.455C255.786 358.754 255.788 357.94 255.79 357.054V357.052V357.049V357.048V357.046V357.045V357.043V357.041V357.04V357.038V357.036V357.035V357.033V357.031V357.029V357.026V357.024V357.022V357.018V357.016V357.015V357.013V357.009V357.005C255.801 352.267 255.816 345.489 255.783 342.731C255.775 342.081 256.027 341.456 256.484 340.994C256.94 340.532 257.563 340.272 258.212 340.271L312.284 340.257C312.929 340.257 313.547 340.513 314.003 340.969C314.459 341.425 314.715 342.043 314.715 342.687V361.138C314.715 371.685 311.609 381.96 306.349 389.661C301.578 396.647 294.865 401.72 286.949 402.591V415.457C287.056 415.349 287.166 415.243 287.279 415.141C288.731 413.83 290.61 413.062 292.49 412.668C296.204 411.892 300.686 412.422 303.934 414.202C309.575 417.293 312.825 421.938 316.32 428.739C318.637 428.333 321.05 427.67 323.484 426.921C324.567 426.587 325.681 426.228 326.789 425.87L326.793 425.869L326.8 425.867C328.677 425.261 330.54 424.66 332.218 424.197C334.869 423.466 337.639 422.897 339.984 423.257C341.22 423.446 342.456 423.909 343.486 424.835C344.522 425.768 345.166 427.003 345.497 428.413C346.124 431.078 344.874 434.38 340.971 437.369C340.434 437.781 339.84 438.192 339.185 438.602C340.715 438.688 342.159 438.88 343.43 439.221C345.629 439.813 348.115 441.097 348.75 443.891C349.09 445.39 348.876 446.83 348.154 448.095C347.467 449.297 346.411 450.191 345.297 450.866C343.826 451.759 341.984 452.43 340.01 452.949C340.987 453.309 341.899 453.73 342.712 454.227C344.677 455.427 346.34 457.262 346.528 459.904C346.614 461.115 346.471 462.359 345.857 463.489C345.229 464.647 344.251 465.421 343.15 465.929C341.132 466.86 338.288 467.071 335.032 467.103C332.673 467.127 329.817 467.049 326.496 466.958C325.094 466.92 323.609 466.879 322.043 466.843C317.45 466.738 312.074 466.666 305.839 466.787C307.407 473.282 309.252 481.182 311.057 489.322H346.969C363.075 489.322 376.131 476.265 376.131 460.159V405.295C374.779 405.814 373.517 406.29 372.395 406.709C370.856 407.283 369.577 407.75 368.681 408.074C368.233 408.236 367.881 408.363 367.64 408.449L367.491 408.502L367.364 408.547L367.274 408.579L367.269 408.581L367.268 408.581C366.248 408.942 365.1 408.697 364.305 407.964L364.286 407.946L364.254 407.916L364.227 407.89L364.206 407.87L364.16 407.826C364.124 407.791 364.083 407.751 364.037 407.705C363.88 407.549 363.666 407.33 363.417 407.056C362.922 406.514 362.263 405.735 361.627 404.797C360.468 403.086 358.882 400.118 359.6 396.903C360.188 394.273 361.956 392.21 363.795 390.673C365.668 389.107 367.913 387.837 369.984 386.853C371.76 386.008 373.486 385.336 374.878 384.844C372.857 380.766 370.589 378.206 368.42 376.661C368.294 376.879 368.164 377.093 368.032 377.303C366.551 379.653 364.508 381.792 362.145 382.868C360.932 383.42 359.524 383.739 358.044 383.52C356.524 383.295 355.181 382.538 354.105 381.364C352.958 380.113 352.276 378.603 352.223 376.97C352.172 375.358 352.742 373.896 353.617 372.719C355.333 370.412 358.326 368.993 361.585 368.771C362.724 368.694 363.896 368.756 365.082 368.971C365.108 368.797 365.129 368.623 365.146 368.45C365.332 366.52 364.943 364.899 363.999 363.695C362.341 361.578 359.84 360.476 357.116 360.205C356.806 361.572 356.343 362.864 355.773 364.036C354.482 366.688 352.516 369.017 350.184 370.272C348.997 370.91 347.604 371.325 346.12 371.216C344.587 371.102 343.179 370.442 342.042 369.305C340.817 368.08 340.023 366.573 339.928 364.866C339.835 363.191 340.436 361.699 341.28 360.503C342.911 358.191 345.773 356.48 348.769 355.469C349.649 355.172 350.593 354.92 351.578 354.729C351.236 352.718 350.258 350.71 348.405 348.935C347.223 347.802 345.597 347.235 343.803 347.172C343.799 347.733 343.762 348.286 343.695 348.827C343.29 352.101 341.763 355.319 339.509 357.282C338.361 358.282 336.859 359.09 335.106 359.165C333.275 359.243 331.594 358.502 330.236 357.176C329.093 356.06 328.363 354.689 328.185 353.15C328.011 351.646 328.394 350.239 329.014 349.048C330.217 346.732 332.502 344.829 334.967 343.529C335.442 343.279 335.944 343.042 336.468 342.822C336.426 342.775 336.383 342.729 336.339 342.682C334.995 341.273 332.317 339.913 327.155 340.024L327.03 334.192C333.207 334.06 337.717 335.677 340.559 338.657C341.365 339.502 342 340.417 342.485 341.371C345.955 341.138 349.573 341.976 352.44 344.723C355.519 347.673 357.009 351.062 357.424 354.385C361.523 354.716 365.648 356.342 368.59 360.098C370.694 362.782 371.24 366.021 370.951 369.012C370.883 369.719 370.767 370.422 370.611 371.117C372.52 372.28 374.387 373.896 376.131 376.023V296.725L331.712 310.749C330.449 311.148 329.099 310.461 328.677 309.205L318.762 279.683C318.543 279.031 318.61 278.316 318.948 277.717L342.707 235.524C343.201 234.646 344.186 234.165 345.183 234.313C357.57 236.16 368.328 244.119 376.131 253.269V219.733L385.852 215.128L385.852 380.694V401.402L385.852 461.831C385.852 485.792 359.03 512.651 335.304 512.651H207.961C186.487 512.651 169.078 495.149 169.078 473.559V444.258V416.173V297.591V266.545V200.886C169.078 177.665 196.296 150.065 219.626 150.065H323.732L319.127 159.786ZM190.464 256.523V294.544C197.059 297.05 204.317 298.764 210.732 299.566L207.748 291.851L200.213 278.365C199.71 277.464 199.83 276.343 200.514 275.57C201.198 274.796 202.295 274.539 203.251 274.929L233.564 287.273C237.447 284.736 240.341 282.064 242.033 279.274C243.183 277.378 243.798 275.404 243.765 273.287C243.548 272.094 243.315 270.846 243.064 269.538C239.082 258.102 220.619 247.346 190.464 256.523ZM190.464 389.427V403.735C190.721 404.603 190.998 405.443 191.288 406.24C191.812 407.678 192.353 408.9 192.863 409.852C192.867 409.808 192.871 409.763 192.874 409.718C192.878 409.673 192.882 409.627 192.885 409.581C192.892 409.501 192.898 409.419 192.903 409.335C192.907 409.29 192.91 409.244 192.913 409.198C193.059 406.926 193.011 403.882 192.862 400.45C192.73 397.407 192.512 393.983 192.298 390.629L192.298 390.625C192.22 389.4 192.142 388.184 192.07 386.999C191.529 387.808 190.994 388.618 190.464 389.427ZM190.464 414.915V439.178C194.068 435.944 197.952 431.821 201.908 427.224C210.976 416.685 220.063 404.095 226.625 395.002L226.626 395L226.629 394.996C228.166 392.866 229.565 390.929 230.792 389.254C226.518 384.133 222.653 378.196 221.497 371.038C220.454 364.583 221.656 357.439 226.193 349.339C224.786 350.089 223.304 351.043 221.753 352.197C218.074 354.933 214.191 358.661 210.246 363.059C210.995 367.374 212.152 374.335 212.745 380.895C213.069 384.48 213.233 388.03 213.051 391.002C212.96 392.487 212.779 393.898 212.458 395.13C212.148 396.325 211.651 397.574 210.78 398.529C210.351 398.999 209.703 399.468 208.829 399.594C207.956 399.72 207.21 399.454 206.682 399.135C205.745 398.569 205.096 397.607 204.656 396.832C203.701 395.149 202.805 392.632 202.033 389.803C200.971 385.916 200.053 381.107 199.548 376.326C198.554 377.673 197.568 379.038 196.592 380.417C196.698 383.318 196.913 386.655 197.137 390.138L197.137 390.139L197.138 390.141L197.138 390.143L197.138 390.146L197.138 390.148L197.138 390.149L197.138 390.151C197.352 393.467 197.573 396.913 197.718 400.239C197.868 403.703 197.927 406.963 197.763 409.509C197.682 410.774 197.54 411.961 197.292 412.947C197.168 413.441 196.999 413.956 196.757 414.432C196.522 414.893 196.143 415.468 195.522 415.899C194.208 416.811 192.779 416.558 191.795 415.999C191.292 415.714 190.85 415.33 190.464 414.915ZM306.078 489.322H279.119L274.08 459.642C273.937 458.799 273.361 458.093 272.564 457.783C261.89 453.637 255.461 444.533 254.391 435.945C253.858 431.671 254.655 427.59 256.817 424.258C258.967 420.946 262.59 418.184 268.071 416.739C270.131 416.195 273 416.376 275.31 417.284C277.697 418.224 278.614 419.522 278.614 420.707C278.614 421.16 278.44 421.635 277.444 422.31C276.403 423.014 274.967 423.592 273.151 424.323L272.942 424.408C271.178 425.118 269.058 425.984 267.368 427.235C265.592 428.55 264.072 430.455 263.911 433.221C263.603 438.528 267.786 441.547 271.617 443.104C275.579 444.715 280.287 445.292 283.425 445.298L283.458 445.298L283.486 445.297C287.471 445.203 292.462 444.318 296.389 442.575C298.347 441.706 300.226 440.542 301.547 438.989C302.929 437.364 303.708 435.277 303.229 432.885C303.007 431.774 302.316 430.957 301.767 430.429C301.184 429.867 300.471 429.361 299.771 428.91C298.962 428.39 297.93 427.801 296.912 427.22C296.266 426.852 295.626 426.487 295.052 426.145C293.423 425.173 292.002 424.21 291.002 423.2C290.006 422.195 289.667 421.39 289.667 420.707C289.667 419.861 289.976 419.255 290.537 418.748C291.158 418.186 292.154 417.704 293.485 417.426C296.193 416.859 299.476 417.301 301.598 418.464C306.272 421.025 309.019 424.951 312.766 432.483C313.223 433.403 314.211 433.935 315.231 433.813C318.491 433.422 321.818 432.519 324.914 431.566C326.153 431.185 327.331 430.804 328.46 430.439L328.463 430.438L328.465 430.437L328.47 430.436C330.251 429.86 331.913 429.323 333.51 428.882C336.146 428.156 338.023 427.873 339.248 428.061C339.796 428.145 340.076 428.305 340.235 428.449C340.389 428.587 340.612 428.871 340.766 429.527C340.801 429.673 341.018 431.211 338.015 433.51C334.989 435.828 329.019 438.602 317.757 440.876C316.448 441.141 315.597 442.413 315.853 443.724C316.109 445.035 317.375 445.894 318.688 445.647C323.541 444.732 330.09 443.623 335.546 443.434C338.297 443.339 340.577 443.487 342.167 443.915C343.849 444.367 343.993 444.893 344.01 444.968C344.089 445.315 344.035 445.507 343.933 445.685C343.795 445.927 343.47 446.29 342.777 446.71C341.357 447.572 339.054 448.284 336.135 448.836C331.405 449.729 325.826 450.074 321.468 450.343L321.467 450.343L321.466 450.343L321.463 450.343L321.458 450.344C320.485 450.404 319.574 450.46 318.746 450.518C317.445 450.609 316.448 451.711 316.486 453.014C316.525 454.318 317.586 455.359 318.89 455.372C324.113 455.426 330.091 455.626 334.781 456.555C337.139 457.021 338.97 457.636 340.178 458.374C341.349 459.09 341.642 459.719 341.68 460.249C341.724 460.868 341.621 461.105 341.586 461.17C341.566 461.207 341.492 461.341 341.113 461.516C340.169 461.952 338.336 462.21 334.984 462.243C332.724 462.265 330.016 462.192 326.759 462.103L326.754 462.103L326.745 462.103L326.74 462.102C325.319 462.064 323.793 462.022 322.155 461.984C316.793 461.861 310.339 461.783 302.697 462.001C301.963 462.022 301.278 462.373 300.833 462.957C300.388 463.541 300.231 464.294 300.405 465.007C302.039 471.691 304.075 480.332 306.078 489.322ZM376.131 291.628V284.472C375.066 283.977 374.172 283.185 373.591 282.035C372.793 280.455 372.805 278.605 373.108 276.848C373.439 274.925 374.229 273.187 375.462 271.946C375.672 271.735 375.895 271.538 376.131 271.358V265.913L342.556 275.377C344.13 276.924 344.977 279.173 344.554 281.626C344.145 284.003 343.025 285.835 341.276 286.912C339.59 287.949 337.67 288.069 336.02 287.785C334.187 287.469 332.52 286.501 331.418 284.948C330.306 283.381 329.895 281.395 330.26 279.28C330.287 279.123 330.317 278.969 330.352 278.817L324.182 280.556L332.525 305.396L376.131 291.628ZM228.654 177.719C233.765 181.881 236.369 188.217 239.126 195.117C235.356 196.849 232.243 199.98 230.175 203.562C228.104 207.149 226.949 211.416 227.338 215.552C224.358 215.994 220.845 216.466 217.203 216.518C213.693 216.569 210.24 216.222 207.19 215.17C211.138 210.906 215.396 204.75 219.149 198.249C223.068 191.462 226.566 184.075 228.654 177.719ZM232.169 215C231.92 212.076 232.727 208.863 234.384 205.993C236.055 203.099 238.459 200.779 241.144 199.54C243.829 204.093 248.36 208.187 254.215 212.344C260.059 216.492 267.483 220.878 276.227 225.939C275.351 226.789 274.59 227.807 273.984 228.856C273.379 229.904 272.878 231.072 272.58 232.256C263.783 227.19 256.12 222.866 249.525 219.832C243.044 216.852 237.237 214.94 232.169 215ZM277.159 234.798C277.137 234.635 277.13 234.394 277.175 234.05C277.279 233.256 277.63 232.262 278.193 231.286C278.757 230.31 279.442 229.509 280.078 229.022C280.353 228.811 280.565 228.697 280.718 228.635C280.944 228.898 281.066 229.24 281.097 229.699C281.148 230.48 280.897 231.511 280.318 232.513C279.74 233.515 278.973 234.248 278.271 234.594C277.858 234.797 277.501 234.861 277.159 234.798ZM360.626 283.742C362.122 284.021 362.934 285.183 362.704 286.518C362.573 287.277 361.893 288.142 360.527 288.835C359.154 289.532 357.759 289.702 357.156 289.598C356.473 289.48 355.985 289.151 355.692 288.738C355.41 288.341 355.189 287.695 355.36 286.709C355.467 286.085 356.042 285.213 357.212 284.509C358.357 283.82 359.651 283.56 360.626 283.742ZM367.493 287.344C368.229 283.076 365.303 279.669 361.516 278.964C359.133 278.52 356.641 279.181 354.707 280.344C352.797 281.493 350.997 283.404 350.57 285.883C350.205 287.998 350.616 289.984 351.728 291.551C352.83 293.103 354.497 294.071 356.33 294.387C358.242 294.717 360.708 294.193 362.726 293.169C364.751 292.142 366.991 290.259 367.493 287.344ZM337.739 278.151C339.148 278.36 339.981 279.543 339.765 280.801C339.541 282.098 339.055 282.571 338.728 282.772C338.338 283.013 337.711 283.144 336.846 282.995C336.163 282.877 335.674 282.548 335.382 282.136C335.1 281.738 334.879 281.092 335.049 280.106C335.222 279.106 335.62 278.655 335.951 278.433C336.317 278.189 336.903 278.027 337.739 278.151ZM337.83 348.615L337.772 348.644L337.721 348.671L337.687 348.689C335.844 349.661 334.657 350.837 334.189 351.738C333.972 352.155 333.969 352.392 333.979 352.481C333.985 352.535 334.009 352.708 334.311 353.003C334.518 353.206 334.664 353.283 334.732 353.311C334.794 353.337 334.829 353.339 334.858 353.338C334.926 353.335 335.213 353.289 335.678 352.884C336.572 352.105 337.484 350.524 337.83 348.615ZM350.773 360.949C350.726 360.964 350.68 360.98 350.634 360.995C348.273 361.792 346.695 362.945 346.046 363.865C345.749 364.285 345.75 364.502 345.752 364.542C345.752 364.558 345.758 364.773 346.166 365.18C346.365 365.38 346.481 365.394 346.55 365.399C346.668 365.408 346.956 365.385 347.421 365.135C348.392 364.613 349.613 363.364 350.528 361.484C350.613 361.309 350.695 361.13 350.773 360.949ZM362.844 374.581C362.542 374.568 362.253 374.572 361.981 374.59C360.034 374.722 358.784 375.545 358.297 376.2C358.071 376.503 358.05 376.701 358.053 376.783C358.055 376.843 358.072 377.06 358.405 377.423C358.666 377.708 358.829 377.74 358.898 377.75C359.008 377.767 359.272 377.767 359.728 377.56C360.627 377.15 361.786 376.142 362.844 374.581ZM280.169 426.334C280.857 425.868 281.53 425.3 282.088 424.608L282.088 430.942L270.555 430.934C271.633 430.208 273.058 429.601 274.758 428.916L275.106 428.776L275.15 428.758L275.151 428.758C276.779 428.105 278.679 427.343 280.169 426.334ZM273.447 438.602C271.446 437.788 270.125 436.846 269.41 435.793L284.517 435.804L297.848 435.836L297.844 435.841C297.182 436.619 296.033 437.415 294.417 438.132C291.209 439.557 286.892 440.351 283.402 440.437C280.694 440.429 276.662 439.908 273.447 438.602ZM292.562 430.319C292.947 430.548 293.314 430.763 293.667 430.966L286.949 430.95V425.972C287.144 426.198 287.345 426.415 287.549 426.621C289.003 428.088 290.867 429.308 292.562 430.319ZM260.65 357.106V357.102C260.658 353.433 260.67 348.482 260.659 345.131L309.855 345.118L309.855 360.36C308.865 361.653 307.414 362.962 305.699 363.505C303.95 364.059 301.428 363.976 298.072 361.039C294.207 357.658 290.537 354.794 286.952 353.577C285.091 352.946 283.169 352.725 281.217 353.146C279.268 353.568 277.487 354.587 275.835 356.119C273.957 357.86 271.79 358.553 268.927 358.777C267.467 358.891 265.874 358.879 264.07 358.833C263.633 358.822 263.182 358.808 262.72 358.794L262.703 358.794L262.702 358.794C262.039 358.774 261.352 358.754 260.646 358.738L260.65 357.108V357.106ZM207.836 282.044L211.721 288.998L233.311 300.297L231.671 291.75L207.836 282.044ZM206.127 367.862C206.771 371.824 207.485 376.695 207.904 381.333C208.219 384.82 208.36 388.09 208.2 390.704C208.158 391.383 208.097 391.998 208.019 392.548C207.596 391.465 207.154 390.108 206.721 388.523C205.32 383.391 204.182 376.502 204.014 370.479C204.717 369.592 205.421 368.719 206.127 367.862ZM267.258 169.506C261.89 169.506 257.537 173.859 257.537 179.227C257.537 184.596 261.89 188.948 267.258 188.948H299.867C305.235 188.948 309.587 184.596 309.587 179.227C309.587 173.859 305.235 169.506 299.867 169.506H267.258ZM393.249 611.752L416.813 608.65C423.187 607.811 428.752 606.399 433.51 604.414C438.357 602.328 442.128 599.432 444.821 595.727C447.514 592.022 448.86 587.182 448.86 581.206C448.86 576.589 447.738 572.707 445.494 569.562C443.34 566.405 439.704 564.213 434.587 562.985C429.56 561.745 422.738 561.693 414.12 562.827C417.441 562.39 420.942 561.703 424.623 560.766C428.393 559.816 431.894 558.405 435.126 556.531C438.357 554.657 441.006 552.135 443.07 548.966C445.135 545.796 446.167 541.767 446.167 536.878C446.167 532.803 445.27 529.119 443.474 525.824C441.679 522.529 438.672 520.118 434.453 518.591C430.323 516.962 424.578 516.632 417.217 517.601L393.249 520.756L378.841 522.653L369.011 523.947V614.943L378.841 613.649L393.249 611.752ZM393.249 590.022L413.447 587.363C417.217 586.866 419.91 585.878 421.526 584.398C423.231 582.905 424.084 580.937 424.084 578.492C424.084 576.772 423.725 575.416 423.007 574.424C422.289 573.432 421.122 572.771 419.506 572.44C417.98 572.098 415.96 572.092 413.447 572.423L393.249 575.082V590.022ZM393.249 556.068L411.427 553.675C413.402 553.415 415.062 552.97 416.409 552.34C417.756 551.71 418.788 550.85 419.506 549.759C420.224 548.669 420.583 547.354 420.583 545.815C420.583 544.185 420.224 542.919 419.506 542.018C418.788 541.026 417.756 540.392 416.409 540.117C415.062 539.841 413.402 539.833 411.427 540.093L393.249 542.487V556.068ZM320.957 622.628C307.851 624.353 297.842 622.276 290.929 616.395C284.017 610.514 280.561 600.194 280.561 585.436V535.592L304.799 532.401V582.517C304.799 588.945 306.19 593.47 308.973 596.092C311.756 598.623 315.795 599.54 321.092 598.842C326.568 598.121 330.652 596.135 333.345 592.883C336.038 589.541 337.385 584.655 337.385 578.227V528.111L361.622 524.92V574.764C361.622 589.523 358.211 600.746 351.389 608.435C344.566 616.124 334.422 620.855 320.957 622.628ZM215.29 635.181L231.045 633.107L274.537 627.381V605.65L231.045 611.376V542.111L206.807 545.302V636.298L215.29 635.181ZM135.993 640.459C142.995 643.703 151.299 644.692 160.904 643.427C167.367 642.576 173.202 640.858 178.409 638.271C183.616 635.593 188.149 632.235 192.009 628.196C195.959 624.144 199.19 619.599 201.704 614.56L181.506 599.699C180.698 602.703 179.352 605.687 177.466 608.651C175.671 611.514 173.382 613.988 170.599 616.075C167.816 618.071 164.495 619.323 160.635 619.831C156.505 620.375 152.915 619.897 149.863 618.397C146.9 616.795 144.611 614.38 142.995 611.152C141.469 607.822 140.706 603.893 140.706 599.366C140.706 594.748 141.469 590.619 142.995 586.977C144.611 583.324 146.9 580.352 149.863 578.06C152.915 575.666 156.505 574.198 160.635 573.654C164.495 573.146 167.816 573.569 170.599 574.923C173.382 576.186 175.671 578.013 177.466 580.402C179.352 582.779 180.698 585.409 181.506 588.291L201.704 568.111C199.19 563.734 195.959 560.04 192.009 557.029C188.149 554.006 183.616 551.886 178.409 550.67C173.202 549.364 167.367 549.136 160.904 549.987C151.299 551.251 142.995 554.427 135.993 559.514C129.081 564.589 123.74 570.906 119.97 578.464C116.289 585.921 114.449 594.04 114.449 602.823C114.449 611.515 116.289 619.15 119.97 625.728C123.74 632.294 129.081 637.205 135.993 640.459ZM377.052 107.265L362.477 101.606L354.629 98.5594L387.035 15.096L394.883 18.1431L409.458 23.8021L450.94 39.9084L443.202 59.8399L401.719 43.7336L397.124 55.568L432.378 69.2559L424.639 89.1875L389.385 75.4995L384.79 87.3339L426.273 103.44L418.534 123.372L377.052 107.265ZM462.99 116.515L461.498 115.387L442.149 140.964L422.966 126.453L476.981 55.048L484.761 60.9332L496.164 69.5595L511.191 80.9268C516.733 85.119 521.044 89.6091 524.125 94.397C527.33 99.1675 528.878 104.136 528.767 109.303C528.782 114.452 526.8 119.656 522.823 124.913C518.792 130.242 514.288 133.538 509.312 134.8C504.46 136.045 499.419 135.695 494.189 133.749C491.268 132.678 488.372 131.267 485.5 129.517C486.876 131.167 487.928 132.802 488.654 134.421C489.996 137.224 490.742 140.078 490.89 142.983C491.039 145.888 490.963 149.014 490.665 152.363L488.722 176.195L466.874 159.668L469.476 131.643C469.828 128.223 469.564 125.398 468.682 123.167C467.8 120.936 465.903 118.719 462.99 116.515ZM483.265 86.6114L473.107 100.04L488.347 111.568C490.194 112.966 491.875 113.846 493.388 114.208C494.972 114.625 496.424 114.551 497.745 113.986C499.191 113.404 500.451 112.402 501.526 110.981C502.655 109.489 503.275 108.004 503.388 106.526C503.572 105.101 503.249 103.683 502.417 102.272C501.656 100.915 500.353 99.5374 498.505 98.14L483.265 86.6114ZM409.068 166.047C409.068 144.872 391.903 127.707 370.728 127.707C348.376 127.707 326.555 151.527 326.555 173.824C326.555 194.999 343.721 212.164 364.895 212.164C387.232 212.164 409.068 188.343 409.068 166.047ZM371.7 195.638C388.58 195.638 402.264 181.954 402.264 165.074C402.264 148.195 388.58 134.511 371.7 134.511C354.82 134.511 341.136 148.195 341.136 165.074C341.136 181.954 354.82 195.638 371.7 195.638Z" fill="#EBEADC"/>
<path d="M285.636 262.824H281.073V271.952L276.51 271.953V276.517L271.946 276.517V285.645L267.382 285.645V299.334L271.946 299.334V303.898L276.51 303.898V299.334H273.157V285.645H276.51V281.081L280.23 281.081V285.645L276.51 285.645V299.334L280.23 299.334V303.898L276.51 303.898V308.462H290.201V303.898H294.765V299.334H299.329V285.645H294.765V281.081V276.517H290.201V271.953L285.636 271.952V262.824Z" fill="#EBEADC"/>
<path d="M359.579 174.726L352.739 175.627V170.807L359.28 169.946C360.335 169.807 361.172 169.466 361.789 168.922C362.426 168.377 362.884 167.684 363.163 166.844C363.462 166.001 363.611 165.088 363.611 164.103C363.611 163.099 363.462 162.225 363.163 161.481C362.864 160.717 362.386 160.148 361.729 159.772C361.092 159.394 360.246 159.274 359.191 159.413L352.739 160.263V155.443L359.489 154.554C361.46 154.295 363.183 154.51 364.656 155.199C366.13 155.869 367.265 156.914 368.061 158.336C368.878 159.735 369.286 161.408 369.286 163.356C369.286 165.284 368.888 167.064 368.091 168.695C367.295 170.326 366.17 171.68 364.716 172.755C363.263 173.81 361.55 174.467 359.579 174.726ZM356.234 175.167L350.857 175.875V155.69L356.234 154.983V175.167Z" fill="#EBEADC"/>
<path d="M376.564 172.49L371.187 173.198V153.014L378.654 152.031L380.626 157.646L382.388 164.403L384.15 157.182L386.121 151.048L393.588 150.065V170.249L388.212 170.957V165.715L389.078 155.69L386.569 163.852L385.285 167.727L379.491 168.49L378.206 164.953L375.697 157.451L376.564 167.248V172.49Z" fill="#EBEADC"/>
<path d="M9.44864 364.508H0V329.338H9.44864V364.508ZM26.9286 364.508H3.30702V356.109H26.9286V364.508ZM24.304 351.122H3.30702V342.723H24.304V351.122ZM26.9286 337.737H3.30702V329.338H26.9286V337.737Z" fill="#D0B996"/>
<path d="M45.6971 365.033C43.4225 365.033 41.2178 364.805 39.0831 364.35C36.9834 363.895 35.0237 363.213 33.2039 362.303C31.3842 361.393 29.8094 360.238 28.4796 358.839L34.3588 351.227C35.3386 352.417 36.4935 353.414 37.8233 354.219C39.1531 355.024 40.5354 355.637 41.9702 356.057C43.44 356.442 44.8573 356.634 46.2221 356.634C47.0269 356.634 47.7268 356.564 48.3217 356.424C48.9167 356.284 49.3716 356.074 49.6866 355.794C50.0015 355.479 50.159 355.077 50.159 354.587C50.159 353.992 49.949 353.484 49.5291 353.064C49.1091 352.645 48.4267 352.277 47.4819 351.962C46.537 351.612 45.2772 351.297 43.7024 351.017L40.1854 350.335C38.6806 350.055 37.2633 349.67 35.9335 349.18C34.6037 348.655 33.4139 347.99 32.3641 347.185C31.3492 346.345 30.5443 345.331 29.9494 344.141C29.3895 342.951 29.1095 341.516 29.1095 339.836C29.1095 337.457 29.7219 335.462 30.9468 333.852C32.2066 332.207 33.8863 330.983 35.986 330.178C38.1207 329.338 40.4829 328.918 43.0725 328.918C46.502 328.918 49.5466 329.46 52.2062 330.545C54.9008 331.63 57.123 333.047 58.8727 334.797L53.0461 342.304C51.6463 340.834 49.914 339.644 47.8493 338.734C45.8196 337.789 43.8599 337.317 41.9702 337.317C41.3753 337.317 40.8328 337.387 40.3429 337.527C39.853 337.667 39.468 337.877 39.1881 338.157C38.9431 338.437 38.8206 338.787 38.8206 339.206C38.8206 340.186 39.3105 340.904 40.2904 341.359C41.2703 341.814 42.6176 342.234 44.3323 342.618L48.4792 343.563C50.404 343.983 52.0662 344.508 53.466 345.138C54.9008 345.768 56.0906 346.52 57.0355 347.395C57.9804 348.27 58.6803 349.285 59.1352 350.44C59.6251 351.56 59.8701 352.855 59.8701 354.324C59.8701 356.704 59.2402 358.699 57.9804 360.308C56.7555 361.883 55.0758 363.073 52.9411 363.878C50.8064 364.648 48.3917 365.033 45.6971 365.033Z" fill="#D0B996"/>
<path d="M79.2119 364.508H69.7633V329.338H79.2119V364.508ZM89.343 337.737H59.6322V329.338H89.343V337.737Z" fill="#D0B996"/>
<path d="M106.472 364.508H94.4511V356.109H105.947C107.802 356.109 109.271 355.707 110.356 354.902C111.476 354.097 112.281 352.994 112.771 351.595C113.296 350.195 113.558 348.638 113.558 346.923C113.558 345.173 113.296 343.616 112.771 342.251C112.246 340.851 111.406 339.749 110.251 338.944C109.132 338.139 107.644 337.737 105.789 337.737H94.4511V329.338H106.314C109.779 329.338 112.806 330.108 115.396 331.648C117.985 333.152 119.98 335.235 121.38 337.894C122.815 340.519 123.532 343.528 123.532 346.923C123.532 350.282 122.832 353.292 121.432 355.952C120.032 358.611 118.055 360.711 115.501 362.251C112.946 363.755 109.936 364.508 106.472 364.508ZM100.593 364.508H91.1441V329.338H100.593V364.508Z" fill="#D0B996"/>
<path d="M134.35 364.508H124.901V355.532H134.35V364.508Z" fill="#D0B996"/>
</svg>
