<svg width="554" height="644" viewBox="0 0 554 644" fill="none" xmlns="http://www.w3.org/2000/svg">
<path d="M451.332 364.611H422.957V357.557L437.276 344.974C437.943 344.378 438.469 343.851 438.855 343.395C439.277 342.939 439.575 342.5 439.75 342.079C439.926 341.623 440.014 341.149 440.014 340.658C440.014 340.026 439.856 339.517 439.54 339.131C439.259 338.71 438.855 338.394 438.329 338.183C437.803 337.973 437.206 337.867 436.539 337.867C435.451 337.867 434.398 338.131 433.38 338.657C432.398 339.148 431.503 340.008 430.695 341.237C429.923 342.43 429.292 344.062 428.8 346.133L421.904 340.131C422.43 337.674 423.431 335.621 424.905 333.972C426.379 332.287 428.204 331.006 430.38 330.129C432.591 329.251 435.03 328.812 437.697 328.812C440.294 328.812 442.523 329.269 444.383 330.181C446.243 331.094 447.665 332.41 448.647 334.13C449.665 335.814 450.174 337.815 450.174 340.131C450.174 341.43 449.963 342.641 449.542 343.764C449.121 344.887 448.524 345.94 447.752 346.922C446.98 347.905 446.05 348.853 444.962 349.765C443.874 350.643 442.663 351.502 441.33 352.345L437.539 354.766L432.538 357.451L440.751 356.188H451.332V364.611Z" fill="#B18A50"/>
<path d="M470.806 365.032C467.366 365.032 464.401 364.277 461.909 362.768C459.452 361.224 457.557 359.101 456.223 356.398C454.89 353.661 454.223 350.502 454.223 346.922C454.223 343.342 454.89 340.201 456.223 337.499C457.557 334.761 459.452 332.638 461.909 331.129C464.401 329.585 467.366 328.812 470.806 328.812C474.245 328.812 477.193 329.585 479.65 331.129C482.142 332.638 484.055 334.761 485.388 337.499C486.722 340.201 487.389 343.342 487.389 346.922C487.389 350.502 486.722 353.661 485.388 356.398C484.055 359.101 482.142 361.224 479.65 362.768C477.193 364.277 474.245 365.032 470.806 365.032ZM470.806 355.819C472.28 355.819 473.508 355.468 474.491 354.766C475.474 354.064 476.193 353.047 476.649 351.713C477.141 350.379 477.386 348.782 477.386 346.922C477.386 345.027 477.141 343.43 476.649 342.132C476.193 340.798 475.474 339.78 474.491 339.078C473.508 338.376 472.28 338.025 470.806 338.025C469.332 338.025 468.103 338.376 467.121 339.078C466.173 339.78 465.454 340.798 464.962 342.132C464.471 343.43 464.225 345.027 464.225 346.922C464.225 348.782 464.471 350.379 464.962 351.713C465.454 353.047 466.173 354.064 467.121 354.766C468.103 355.468 469.332 355.819 470.806 355.819Z" fill="#B18A50"/>
<path d="M520.017 364.611H491.642V357.557L505.961 344.974C506.628 344.378 507.154 343.851 507.54 343.395C507.961 342.939 508.26 342.5 508.435 342.079C508.611 341.623 508.698 341.149 508.698 340.658C508.698 340.026 508.541 339.517 508.225 339.131C507.944 338.71 507.54 338.394 507.014 338.183C506.487 337.973 505.891 337.867 505.224 337.867C504.136 337.867 503.083 338.131 502.065 338.657C501.083 339.148 500.188 340.008 499.38 341.237C498.608 342.43 497.977 344.062 497.485 346.133L490.589 340.131C491.115 337.674 492.115 335.621 493.589 333.972C495.064 332.287 496.889 331.006 499.064 330.129C501.276 329.251 503.715 328.812 506.382 328.812C508.979 328.812 511.208 329.269 513.068 330.181C514.928 331.094 516.35 332.41 517.332 334.13C518.35 335.814 518.859 337.815 518.859 340.131C518.859 341.43 518.648 342.641 518.227 343.764C517.806 344.887 517.209 345.94 516.437 346.922C515.665 347.905 514.735 348.853 513.647 349.765C512.559 350.643 511.348 351.502 510.015 352.345L506.224 354.766L501.223 357.451L509.436 356.188H520.017V364.611Z" fill="#B18A50"/>
<path d="M553.64 364.611H525.264V357.557L539.584 344.974C540.25 344.378 540.777 343.851 541.163 343.395C541.584 342.939 541.882 342.5 542.058 342.079C542.233 341.623 542.321 341.149 542.321 340.658C542.321 340.026 542.163 339.517 541.847 339.131C541.567 338.71 541.163 338.394 540.637 338.183C540.11 337.973 539.513 337.867 538.847 337.867C537.759 337.867 536.706 338.131 535.688 338.657C534.705 339.148 533.81 340.008 533.003 341.237C532.231 342.43 531.599 344.062 531.108 346.133L524.211 340.131C524.738 337.674 525.738 335.621 527.212 333.972C528.686 332.287 530.511 331.006 532.687 330.129C534.898 329.251 537.337 328.812 540.005 328.812C542.602 328.812 544.831 329.269 546.691 330.181C548.551 331.094 549.972 332.41 550.955 334.13C551.973 335.814 552.482 337.815 552.482 340.131C552.482 341.43 552.271 342.641 551.85 343.764C551.429 344.887 550.832 345.94 550.06 346.922C549.288 347.905 548.358 348.853 547.27 349.765C546.182 350.643 544.971 351.502 543.637 352.345L539.847 354.766L534.846 357.451L543.058 356.188H553.64V364.611Z" fill="#B18A50"/>
<path fill-rule="evenodd" clip-rule="evenodd" d="M291.509 91.3731L267.553 89.21L275.604 0.0390625L299.561 2.20213L322.15 44.763L328.342 59.4105L328.979 33.0353L331.503 5.08622L355.459 7.24928L347.408 96.4202L324.25 94.3293L300.716 51.8174L294.235 37.4121L293.756 66.4851L291.509 91.3731ZM182.384 105.937L205.909 100.924L200.701 76.4832L192.566 48.5674L203.016 60.4139L238.061 94.0724L260.802 89.2264L242.142 1.65878L218.617 6.67192L224.465 34.1185L231.651 59.5039L221.408 47.3403L187.249 13.3561L163.724 18.3692L182.384 105.937ZM174.392 109.45L152.449 119.304L115.772 37.6275L137.715 27.7738L174.392 109.45ZM104.684 152.677L116.74 143.809C123.845 138.583 128.882 132.5 131.851 125.561C134.767 118.55 135.655 111.261 134.514 103.696C133.372 96.1301 130.268 88.9026 125.2 82.0131C120.08 75.0519 114.069 69.9623 107.168 66.7442C100.285 63.4016 93.0537 62.1404 85.4732 62.9608C77.84 63.7094 70.471 66.6967 63.3662 71.9226L51.6326 80.5534L39.0379 89.8175L32.2561 94.806L85.3074 166.93L92.0892 161.941L104.684 152.677ZM92.015 135.454L102.995 127.377C106.799 124.579 109.206 121.537 110.216 118.25C111.299 114.91 111.286 111.436 110.18 107.826C109.145 104.163 107.334 100.574 104.747 97.0575C102.108 93.4693 99.2206 90.6717 96.0854 88.6646C92.8974 86.5858 89.5123 85.5921 85.9299 85.6835C82.4193 85.7221 78.7623 87.1403 74.9587 89.938L64.3016 97.777L92.015 135.454ZM219.626 159.786H319.127L323.732 150.065H219.626C196.296 150.065 169.078 177.665 169.078 200.886V266.545V297.591V416.173V444.258V473.559C169.078 495.149 186.487 512.651 207.961 512.651H335.304C359.03 512.651 385.852 485.792 385.852 461.831L385.852 401.402V380.694L385.852 215.128L376.131 219.733V253.269C368.328 244.119 357.57 236.16 345.183 234.313C344.186 234.164 343.201 234.646 342.707 235.524L318.948 277.717C318.61 278.316 318.543 279.031 318.762 279.683L328.677 309.205C329.099 310.461 330.449 311.148 331.712 310.749L376.131 296.725V376.023C374.387 373.896 372.52 372.28 370.611 371.117C370.767 370.422 370.883 369.719 370.951 369.012C371.24 366.021 370.694 362.782 368.59 360.098C365.648 356.342 361.523 354.716 357.424 354.385C357.009 351.062 355.519 347.673 352.44 344.723C349.573 341.976 345.955 341.138 342.485 341.371C342 340.417 341.365 339.502 340.559 338.657C337.717 335.677 333.207 334.06 327.03 334.192L327.155 340.024C332.317 339.913 334.995 341.273 336.339 342.682C336.383 342.729 336.426 342.775 336.468 342.822C335.944 343.042 335.442 343.279 334.967 343.529C332.502 344.829 330.217 346.732 329.014 349.048C328.394 350.239 328.011 351.646 328.185 353.15C328.363 354.689 329.093 356.06 330.236 357.176C331.594 358.502 333.275 359.243 335.106 359.165C336.86 359.09 338.361 358.282 339.509 357.282C341.763 355.319 343.29 352.101 343.695 348.827C343.762 348.286 343.799 347.733 343.803 347.172C345.597 347.235 347.223 347.802 348.405 348.935C350.258 350.71 351.236 352.718 351.578 354.729C350.593 354.92 349.649 355.172 348.769 355.469C345.773 356.48 342.911 358.191 341.28 360.503C340.436 361.699 339.835 363.191 339.928 364.866C340.023 366.573 340.817 368.08 342.042 369.305C343.179 370.442 344.587 371.102 346.12 371.216C347.604 371.325 348.997 370.91 350.184 370.272C352.516 369.017 354.482 366.688 355.773 364.036C356.343 362.864 356.806 361.572 357.116 360.205C359.84 360.476 362.341 361.578 363.999 363.695C364.943 364.899 365.332 366.52 365.146 368.45C365.129 368.623 365.108 368.797 365.082 368.971C363.896 368.756 362.724 368.694 361.585 368.771C358.326 368.993 355.333 370.412 353.617 372.719C352.742 373.896 352.172 375.358 352.224 376.97C352.276 378.603 352.958 380.113 354.105 381.364C355.181 382.538 356.524 383.295 358.044 383.52C359.524 383.739 360.932 383.42 362.145 382.868C364.508 381.792 366.551 379.653 368.032 377.303C368.164 377.093 368.294 376.879 368.42 376.661C370.589 378.206 372.857 380.766 374.879 384.844C373.486 385.336 371.76 386.008 369.984 386.853C367.913 387.838 365.668 389.107 363.795 390.673C361.956 392.21 360.188 394.273 359.601 396.903C358.882 400.118 360.468 403.086 361.627 404.797C362.263 405.735 362.922 406.514 363.417 407.056C363.666 407.33 363.88 407.549 364.037 407.705C364.083 407.751 364.124 407.791 364.161 407.826L364.206 407.87L364.227 407.89L364.254 407.916L364.286 407.946L364.305 407.964C365.1 408.697 366.248 408.942 367.268 408.581L367.269 408.581L367.274 408.579L367.365 408.547L367.491 408.502L367.64 408.449C367.881 408.363 368.233 408.236 368.681 408.074C369.577 407.75 370.856 407.283 372.395 406.709C373.517 406.29 374.779 405.814 376.131 405.295V460.159C376.131 476.265 363.075 489.321 346.969 489.321H311.058C309.252 481.182 307.407 473.282 305.839 466.787C312.074 466.666 317.45 466.738 322.043 466.843C323.609 466.879 325.094 466.92 326.496 466.958C329.817 467.049 332.673 467.127 335.033 467.103C338.288 467.071 341.132 466.86 343.15 465.929C344.251 465.421 345.229 464.647 345.857 463.489C346.471 462.359 346.614 461.115 346.528 459.904C346.34 457.262 344.677 455.427 342.712 454.227C341.899 453.73 340.987 453.309 340.01 452.949C341.984 452.43 343.826 451.759 345.298 450.866C346.411 450.191 347.467 449.297 348.154 448.095C348.876 446.83 349.09 445.39 348.75 443.891C348.115 441.097 345.629 439.813 343.43 439.221C342.159 438.88 340.715 438.688 339.185 438.602C339.84 438.192 340.434 437.781 340.971 437.369C344.874 434.38 346.124 431.078 345.497 428.413C345.166 427.003 344.523 425.768 343.486 424.835C342.456 423.909 341.22 423.446 339.984 423.257C337.639 422.897 334.869 423.466 332.218 424.197C330.54 424.66 328.677 425.261 326.8 425.867L326.793 425.869L326.789 425.87C325.681 426.228 324.567 426.587 323.484 426.921C321.05 427.67 318.637 428.333 316.32 428.739C312.825 421.938 309.575 417.293 303.934 414.202C300.686 412.422 296.204 411.892 292.49 412.668C290.61 413.062 288.731 413.83 287.279 415.141C287.166 415.243 287.056 415.349 286.949 415.457V402.591C294.865 401.72 301.578 396.647 306.349 389.661C311.609 381.96 314.715 371.685 314.715 361.138V342.687C314.715 342.043 314.459 341.425 314.003 340.969C313.547 340.513 312.929 340.257 312.284 340.257L258.212 340.271C257.563 340.272 256.94 340.532 256.484 340.994C256.027 341.456 255.775 342.081 255.783 342.731C255.816 345.489 255.801 352.27 255.79 357.009V357.013V357.015V357.016V357.018V357.022V357.024V357.026V357.029V357.031V357.033V357.035V357.036V357.038V357.04V357.041V357.043V357.045V357.046V357.048V357.049V357.052V357.054C255.786 358.797 255.783 360.259 255.783 361.138C255.783 372.205 259.202 382.477 264.414 390.035C269.032 396.73 275.296 401.598 282.088 402.553V416.411C280.845 414.684 278.937 413.489 277.089 412.762C273.904 411.508 269.977 411.209 266.832 412.039C260.333 413.753 255.628 417.163 252.74 421.612C249.866 426.041 248.915 431.309 249.568 436.546C250.821 446.609 257.997 456.796 269.513 461.784L274.189 489.321H219.626C203.52 489.321 190.464 476.265 190.464 460.159V445.534C195.275 441.752 200.479 436.336 205.592 430.394C214.815 419.676 224.106 406.8 230.67 397.705L230.672 397.702C232.677 394.924 234.427 392.498 235.843 390.595C238.08 387.588 239.603 383.082 240.553 378.291C241.516 373.433 241.945 367.997 241.818 362.913C241.691 357.863 241.011 352.981 239.645 349.307C238.964 347.475 238.052 345.777 236.809 344.524C235.514 343.219 233.817 342.368 231.792 342.474C231.753 342.476 231.715 342.479 231.676 342.483C227.458 342.909 223.103 345.134 218.852 348.297C214.563 351.488 210.162 355.796 205.827 360.715C203.757 363.063 201.693 365.561 199.655 368.157C197.104 371.406 194.59 374.814 192.149 378.285C191.583 379.089 191.021 379.896 190.464 380.706V313.246C191.932 313.657 193.422 314.025 194.913 314.353C202.525 316.029 210.514 316.734 216.727 316.658C217.447 316.649 218.125 316.321 218.58 315.764C219.035 315.207 219.22 314.476 219.084 313.77L216.809 301.913C216.782 301.77 216.742 301.63 216.689 301.494L214.55 295.964L235.52 306.939C236.192 307.29 236.99 307.308 237.677 306.987C244.082 303.99 248.409 300.971 249.926 294.791C250.639 291.882 250.689 288.431 250.293 284.222C249.99 280.996 249.413 277.225 248.612 272.779C248.546 271.274 248.257 269.725 247.722 268.137C242.678 253.166 221.198 242.663 190.464 251.461V211.503L201.759 218.024C206.532 220.78 212.176 221.452 217.273 221.378C221.751 221.314 226.052 220.664 229.239 220.182C229.688 220.114 230.114 220.05 230.516 219.991C234.603 219.39 240.073 220.835 247.494 224.248C254.835 227.624 263.618 232.693 274.211 238.808C276.344 240.04 278.584 239.857 280.418 238.954C282.175 238.088 283.587 236.572 284.527 234.943C285.468 233.314 286.075 231.333 285.946 229.379C285.812 227.339 284.85 225.308 282.717 224.076C272.124 217.96 263.529 212.995 257.029 208.381C250.522 203.761 246.455 199.72 244.546 195.579C244.278 194.911 244.008 194.231 243.735 193.541L243.734 193.538C240.626 185.691 237.05 176.664 228.491 171.723L210.397 161.276C213.298 160.309 216.401 159.786 219.626 159.786ZM190.464 294.544V256.523C220.619 247.346 239.082 258.102 243.064 269.538C243.315 270.846 243.548 272.094 243.765 273.287C243.798 275.404 243.183 277.378 242.033 279.274C240.341 282.064 237.447 284.736 233.564 287.273L203.251 274.929C202.295 274.539 201.198 274.796 200.514 275.57C199.83 276.343 199.71 277.464 200.213 278.365L207.748 291.851L210.732 299.566C204.317 298.764 197.059 297.05 190.464 294.544ZM190.464 403.735V389.427C190.994 388.618 191.529 387.808 192.07 386.999C192.142 388.184 192.22 389.4 192.298 390.625L192.298 390.629C192.512 393.983 192.73 397.407 192.862 400.45C193.011 403.882 193.059 406.926 192.913 409.198C192.904 409.329 192.895 409.457 192.885 409.581C192.878 409.673 192.871 409.763 192.863 409.852C192.353 408.9 191.812 407.678 191.288 406.24C190.998 405.443 190.721 404.603 190.464 403.735ZM190.464 439.178V414.915C190.85 415.33 191.292 415.714 191.795 415.999C192.779 416.558 194.208 416.811 195.522 415.899C196.143 415.468 196.522 414.893 196.757 414.432C196.999 413.956 197.168 413.441 197.292 412.947C197.54 411.961 197.682 410.774 197.763 409.509C197.927 406.963 197.868 403.703 197.718 400.239C197.573 396.913 197.352 393.467 197.138 390.151L197.138 390.149L197.138 390.148L197.138 390.146L197.138 390.143L197.138 390.141L197.137 390.139L197.137 390.138C196.913 386.655 196.698 383.318 196.592 380.417C197.568 379.038 198.554 377.673 199.548 376.326C200.054 381.107 200.971 385.916 202.033 389.803C202.805 392.632 203.701 395.149 204.656 396.832C205.096 397.607 205.745 398.569 206.682 399.135C207.21 399.454 207.956 399.72 208.829 399.594C209.703 399.468 210.351 398.999 210.78 398.529C211.651 397.574 212.148 396.325 212.458 395.13C212.779 393.898 212.96 392.487 213.051 391.002C213.233 388.03 213.069 384.48 212.745 380.895C212.152 374.335 210.995 367.374 210.246 363.059C214.191 358.661 218.074 354.933 221.753 352.197C223.304 351.043 224.787 350.089 226.193 349.339C221.656 357.439 220.454 364.584 221.497 371.038C222.653 378.196 226.518 384.133 230.792 389.254C229.565 390.929 228.166 392.866 226.629 394.996L226.626 395L226.625 395.002C220.063 404.095 210.976 416.685 201.908 427.224C197.952 431.821 194.068 435.944 190.464 439.178ZM279.119 489.321H306.078C304.075 480.332 302.039 471.691 300.405 465.007C300.231 464.294 300.389 463.541 300.833 462.957C301.278 462.373 301.963 462.022 302.697 462.001C310.339 461.783 316.793 461.861 322.155 461.984C323.793 462.022 325.319 462.064 326.74 462.102L326.745 462.103L326.754 462.103L326.759 462.103C330.016 462.192 332.724 462.265 334.984 462.243C338.336 462.21 340.169 461.952 341.113 461.516C341.492 461.341 341.566 461.207 341.586 461.17C341.621 461.105 341.724 460.868 341.68 460.249C341.642 459.719 341.349 459.09 340.178 458.374C338.97 457.636 337.139 457.021 334.781 456.555C330.091 455.626 324.113 455.426 318.89 455.372C317.586 455.359 316.525 454.318 316.486 453.014C316.448 451.711 317.445 450.609 318.746 450.518C319.574 450.46 320.485 450.404 321.458 450.344L321.463 450.343L321.466 450.343L321.467 450.343C325.825 450.074 331.404 449.729 336.135 448.836C339.054 448.284 341.357 447.572 342.777 446.71C343.47 446.29 343.795 445.927 343.933 445.685C344.035 445.507 344.089 445.315 344.01 444.968C343.993 444.893 343.849 444.367 342.168 443.915C340.577 443.487 338.297 443.339 335.546 443.434C330.09 443.623 323.541 444.732 318.688 445.647C317.376 445.894 316.109 445.035 315.853 443.724C315.597 442.413 316.448 441.141 317.757 440.876C329.019 438.602 334.989 435.828 338.016 433.51C341.018 431.211 340.801 429.673 340.766 429.527C340.612 428.871 340.389 428.587 340.235 428.449C340.076 428.305 339.796 428.145 339.248 428.061C338.023 427.873 336.146 428.156 333.51 428.882C331.913 429.323 330.251 429.86 328.47 430.436L328.465 430.437L328.463 430.438L328.46 430.439C327.331 430.804 326.153 431.185 324.914 431.566C321.818 432.519 318.491 433.422 315.231 433.813C314.211 433.935 313.223 433.403 312.766 432.483C309.019 424.951 306.272 421.025 301.598 418.464C299.476 417.301 296.193 416.859 293.485 417.426C292.154 417.704 291.158 418.186 290.537 418.748C289.976 419.255 289.667 419.861 289.667 420.707C289.667 421.39 290.006 422.195 291.002 423.2C292.002 424.21 293.423 425.173 295.052 426.145C295.626 426.487 296.266 426.852 296.912 427.22C297.93 427.801 298.962 428.39 299.771 428.91C300.471 429.361 301.184 429.867 301.767 430.429C302.316 430.957 303.007 431.774 303.229 432.885C303.708 435.277 302.929 437.364 301.547 438.989C300.226 440.542 298.347 441.706 296.389 442.575C292.462 444.318 287.471 445.203 283.486 445.297L283.458 445.298L283.425 445.298C280.287 445.292 275.579 444.715 271.617 443.104C267.786 441.547 263.604 438.528 263.911 433.221C264.072 430.455 265.592 428.55 267.368 427.235C269.058 425.984 271.178 425.118 272.942 424.408L273.151 424.323C274.967 423.592 276.403 423.014 277.444 422.31C278.44 421.635 278.614 421.16 278.614 420.707C278.614 419.522 277.697 418.224 275.31 417.284C273 416.376 270.131 416.195 268.071 416.739C262.59 418.184 258.967 420.946 256.817 424.258C254.655 427.59 253.858 431.671 254.391 435.945C255.461 444.533 261.89 453.637 272.564 457.783C273.361 458.093 273.937 458.799 274.08 459.642L279.119 489.321ZM376.131 284.472V291.628L332.525 305.396L324.182 280.556L330.352 278.817C330.317 278.969 330.287 279.123 330.26 279.28C329.895 281.395 330.306 283.381 331.418 284.948C332.52 286.501 334.187 287.469 336.02 287.785C337.67 288.069 339.59 287.949 341.276 286.912C343.025 285.835 344.145 284.003 344.554 281.626C344.977 279.173 344.13 276.924 342.556 275.377L376.131 265.913V271.358C375.895 271.538 375.672 271.735 375.462 271.946C374.229 273.187 373.439 274.925 373.108 276.848C372.805 278.605 372.793 280.455 373.591 282.035C374.172 283.185 375.066 283.977 376.131 284.472ZM239.126 195.117C236.369 188.217 233.765 181.881 228.654 177.719C226.566 184.075 223.068 191.462 219.149 198.249C215.396 204.75 211.138 210.906 207.19 215.17C210.24 216.222 213.693 216.569 217.203 216.518C220.845 216.466 224.358 215.994 227.338 215.552C226.949 211.416 228.104 207.149 230.175 203.562C232.243 199.98 235.356 196.849 239.126 195.117ZM234.384 205.993C232.727 208.863 231.92 212.076 232.169 215C237.237 214.94 243.044 216.852 249.525 219.832C256.12 222.866 263.783 227.19 272.58 232.256C272.878 231.072 273.379 229.904 273.984 228.856C274.59 227.807 275.351 226.789 276.227 225.939C267.483 220.878 260.059 216.492 254.215 212.344C248.36 208.187 243.829 204.093 241.144 199.54C238.459 200.779 236.055 203.099 234.384 205.993ZM277.175 234.05C277.13 234.394 277.137 234.635 277.159 234.798C277.501 234.862 277.858 234.797 278.271 234.594C278.973 234.248 279.74 233.515 280.318 232.513C280.897 231.511 281.148 230.48 281.097 229.699C281.066 229.24 280.944 228.898 280.718 228.635C280.565 228.697 280.353 228.811 280.078 229.022C279.442 229.509 278.757 230.31 278.193 231.286C277.63 232.262 277.279 233.256 277.175 234.05ZM362.704 286.518C362.934 285.183 362.122 284.021 360.626 283.742C359.651 283.56 358.357 283.82 357.212 284.509C356.042 285.213 355.467 286.085 355.36 286.709C355.189 287.695 355.41 288.341 355.692 288.738C355.985 289.151 356.473 289.48 357.156 289.598C357.759 289.702 359.154 289.532 360.527 288.835C361.893 288.142 362.573 287.277 362.704 286.518ZM361.516 278.964C365.303 279.669 368.229 283.076 367.493 287.344C366.991 290.259 364.751 292.142 362.726 293.169C360.708 294.193 358.242 294.717 356.33 294.387C354.497 294.071 352.83 293.103 351.728 291.551C350.616 289.984 350.205 287.998 350.57 285.883C350.997 283.404 352.797 281.493 354.707 280.344C356.641 279.181 359.133 278.52 361.516 278.964ZM339.765 280.801C339.982 279.543 339.148 278.36 337.739 278.151C336.903 278.027 336.317 278.189 335.951 278.433C335.62 278.655 335.222 279.107 335.05 280.106C334.879 281.092 335.1 281.738 335.382 282.136C335.675 282.548 336.163 282.877 336.846 282.995C337.711 283.144 338.338 283.013 338.728 282.772C339.055 282.571 339.541 282.098 339.765 280.801ZM337.772 348.644L337.83 348.615C337.485 350.524 336.572 352.106 335.678 352.884C335.213 353.289 334.926 353.335 334.858 353.338C334.829 353.339 334.794 353.337 334.732 353.311C334.664 353.283 334.518 353.206 334.311 353.003C334.009 352.708 333.985 352.535 333.979 352.481C333.969 352.392 333.972 352.155 334.189 351.738C334.657 350.837 335.844 349.661 337.687 348.689L337.721 348.671L337.772 348.644ZM350.634 360.995C350.68 360.98 350.726 360.964 350.773 360.949C350.695 361.13 350.613 361.309 350.528 361.484C349.613 363.364 348.393 364.612 347.421 365.135C346.956 365.385 346.668 365.408 346.55 365.399C346.481 365.394 346.365 365.38 346.166 365.18C345.758 364.773 345.752 364.558 345.752 364.542C345.75 364.502 345.749 364.285 346.046 363.865C346.695 362.945 348.273 361.792 350.634 360.995ZM361.981 374.59C362.253 374.572 362.542 374.568 362.844 374.581C361.786 376.142 360.627 377.15 359.728 377.56C359.272 377.767 359.008 377.767 358.899 377.75C358.829 377.74 358.666 377.708 358.405 377.423C358.072 377.06 358.055 376.843 358.053 376.783C358.05 376.701 358.071 376.503 358.297 376.2C358.784 375.545 360.034 374.722 361.981 374.59ZM282.088 424.608C281.53 425.3 280.857 425.868 280.169 426.334C278.679 427.343 276.779 428.105 275.15 428.758L275.106 428.776L274.758 428.916C273.058 429.601 271.633 430.208 270.555 430.934L282.088 430.942L282.088 424.608ZM269.41 435.793C270.125 436.846 271.446 437.788 273.447 438.602C276.662 439.908 280.694 440.429 283.402 440.437C286.892 440.351 291.209 439.557 294.417 438.132C296.033 437.415 297.182 436.619 297.844 435.841L297.848 435.836L284.517 435.804L269.41 435.793ZM293.667 430.966C293.314 430.763 292.947 430.548 292.562 430.319C290.867 429.308 289.003 428.088 287.549 426.621C287.345 426.415 287.144 426.198 286.949 425.972V430.95L293.667 430.966ZM260.65 357.102V357.106V357.108L260.647 358.738C261.352 358.754 262.039 358.774 262.702 358.794L262.703 358.794C263.172 358.808 263.628 358.821 264.07 358.833C265.874 358.879 267.467 358.891 268.927 358.777C271.79 358.553 273.957 357.86 275.835 356.119C277.487 354.587 279.268 353.568 281.217 353.146C283.169 352.725 285.091 352.946 286.952 353.577C290.537 354.794 294.207 357.658 298.072 361.039C301.428 363.976 303.95 364.059 305.699 363.505C307.414 362.962 308.865 361.653 309.855 360.36L309.855 345.118L260.659 345.131C260.67 348.482 260.658 353.433 260.65 357.102ZM211.721 288.998L207.836 282.044L231.671 291.75L233.311 300.297L211.721 288.998ZM207.904 381.333C207.485 376.695 206.771 371.824 206.127 367.862C205.421 368.719 204.717 369.592 204.014 370.479C204.182 376.502 205.32 383.391 206.722 388.523C207.154 390.108 207.596 391.465 208.019 392.548C208.097 391.998 208.158 391.383 208.2 390.704C208.36 388.09 208.219 384.82 207.904 381.333ZM257.537 179.227C257.537 173.859 261.89 169.506 267.258 169.506H299.867C305.235 169.506 309.587 173.859 309.587 179.227C309.587 184.596 305.235 188.948 299.867 188.948H267.258C261.89 188.948 257.537 184.596 257.537 179.227ZM416.813 608.65L393.249 611.752L378.841 613.649L369.011 614.943V523.947L378.841 522.653L393.249 520.756L417.217 517.601C424.578 516.632 430.323 516.962 434.453 518.591C438.672 520.118 441.679 522.529 443.474 525.824C445.27 529.119 446.167 532.803 446.167 536.878C446.167 541.767 445.135 545.796 443.07 548.966C441.006 552.135 438.358 554.657 435.126 556.531C431.894 558.405 428.393 559.816 424.623 560.766C420.942 561.703 417.441 562.39 414.12 562.827C422.738 561.693 429.56 561.745 434.587 562.985C439.704 564.213 443.34 566.405 445.494 569.562C447.738 572.707 448.86 576.589 448.86 581.206C448.86 587.182 447.514 592.022 444.821 595.727C442.128 599.432 438.358 602.328 433.51 604.414C428.752 606.399 423.187 607.811 416.813 608.65ZM413.447 587.363L393.249 590.022V575.082L413.447 572.423C415.96 572.092 417.98 572.098 419.506 572.44C421.122 572.771 422.289 573.432 423.007 574.424C423.725 575.416 424.084 576.772 424.084 578.492C424.084 580.937 423.231 582.905 421.526 584.398C419.91 585.878 417.217 586.866 413.447 587.363ZM411.427 553.675L393.249 556.068V542.487L411.427 540.093C413.402 539.833 415.063 539.841 416.409 540.117C417.756 540.392 418.788 541.026 419.506 542.018C420.224 542.919 420.583 544.185 420.583 545.815C420.583 547.354 420.224 548.669 419.506 549.759C418.788 550.85 417.756 551.71 416.409 552.34C415.063 552.97 413.402 553.415 411.427 553.675ZM290.929 616.395C297.842 622.275 307.851 624.353 320.957 622.628C334.422 620.855 344.566 616.124 351.389 608.435C358.211 600.746 361.622 589.523 361.622 574.764V524.92L337.385 528.111V578.227C337.385 584.655 336.038 589.541 333.345 592.883C330.652 596.135 326.568 598.121 321.092 598.842C315.795 599.54 311.756 598.623 308.973 596.092C306.19 593.47 304.799 588.945 304.799 582.517V532.401L280.561 535.592V585.436C280.561 600.194 284.017 610.514 290.929 616.395ZM231.045 633.107L215.29 635.181L206.807 636.298V545.302L231.045 542.111V611.376L274.537 605.65V627.381L231.045 633.107ZM160.904 643.427C151.299 644.692 142.995 643.703 135.993 640.459C129.081 637.205 123.74 632.294 119.97 625.728C116.289 619.15 114.449 611.515 114.449 602.823C114.449 594.04 116.289 585.921 119.97 578.464C123.74 570.906 129.081 564.589 135.993 559.514C142.995 554.427 151.299 551.251 160.904 549.987C167.367 549.136 173.202 549.364 178.409 550.67C183.616 551.886 188.149 554.006 192.009 557.029C195.959 560.04 199.19 563.734 201.704 568.111L181.506 588.291C180.698 585.409 179.352 582.779 177.466 580.402C175.671 578.013 173.382 576.186 170.599 574.923C167.816 573.569 164.495 573.146 160.635 573.654C156.505 574.198 152.915 575.666 149.863 578.06C146.9 580.352 144.611 583.324 142.995 586.977C141.469 590.619 140.706 594.748 140.706 599.366C140.706 603.893 141.469 607.822 142.995 611.152C144.611 614.38 146.9 616.795 149.863 618.397C152.915 619.897 156.505 620.375 160.635 619.831C164.495 619.323 167.816 618.071 170.599 616.075C173.382 613.988 175.671 611.514 177.466 608.651C179.352 605.687 180.698 602.703 181.506 599.699L201.704 614.56C199.19 619.599 195.959 624.144 192.009 628.196C188.149 632.235 183.616 635.593 178.409 638.271C173.202 640.858 167.367 642.576 160.904 643.427ZM362.477 101.606L377.052 107.265L418.534 123.372L426.273 103.44L384.791 87.3339L389.385 75.4995L424.639 89.1875L432.378 69.2559L397.124 55.568L401.719 43.7336L443.202 59.8399L450.94 39.9084L409.458 23.8021L394.883 18.1431L387.035 15.096L354.629 98.5594L362.477 101.606ZM461.498 115.387L462.99 116.515C465.903 118.719 467.8 120.936 468.682 123.167C469.564 125.398 469.828 128.223 469.476 131.643L466.874 159.668L488.722 176.195L490.665 152.363C490.963 149.014 491.039 145.888 490.89 142.983C490.742 140.078 489.996 137.224 488.654 134.421C487.928 132.802 486.876 131.167 485.5 129.517C488.372 131.267 491.268 132.678 494.189 133.749C499.42 135.695 504.46 136.045 509.312 134.8C514.288 133.538 518.792 130.242 522.823 124.913C526.8 119.656 528.782 114.452 528.767 109.303C528.878 104.136 527.33 99.1675 524.125 94.397C521.044 89.6091 516.733 85.1191 511.191 80.9268L496.164 69.5595L484.761 60.9332L476.981 55.048L422.966 126.453L442.149 140.964L461.498 115.387ZM473.107 100.04L483.265 86.6114L498.505 98.14C500.353 99.5374 501.656 100.915 502.417 102.272C503.249 103.683 503.572 105.101 503.388 106.526C503.275 108.004 502.655 109.489 501.526 110.981C500.451 112.402 499.191 113.404 497.745 113.986C496.424 114.551 494.972 114.625 493.388 114.208C491.875 113.846 490.194 112.966 488.347 111.568L473.107 100.04ZM370.728 127.707C391.903 127.707 409.068 144.872 409.068 166.047C409.068 188.343 387.232 212.164 364.896 212.164C343.721 212.164 326.555 194.999 326.555 173.824C326.555 151.527 348.376 127.707 370.728 127.707Z" fill="#221E1F"/>
<path d="M402.264 165.074C402.264 181.954 388.58 195.638 371.7 195.638C354.821 195.638 341.137 181.954 341.137 165.074C341.137 148.195 354.821 134.511 371.7 134.511C388.58 134.511 402.264 148.195 402.264 165.074Z" fill="#B18A50"/>
<path d="M285.636 262.824H281.073V271.952L276.51 271.953V276.517L271.946 276.517V285.645L267.382 285.645V299.334L271.946 299.334V303.898L276.51 303.898V299.334H273.157V285.645H276.51V281.081L280.23 281.081V285.645L276.51 285.645V299.334L280.23 299.334V303.898L276.51 303.898V308.462H290.201V303.898H294.765V299.334H299.329V285.645H294.765V281.081V276.517H290.201V271.953L285.636 271.952V262.824Z" fill="#B18A50"/>
<path d="M359.579 174.726L352.739 175.627V170.807L359.28 169.946C360.335 169.807 361.172 169.466 361.789 168.922C362.426 168.377 362.884 167.684 363.163 166.844C363.462 166.001 363.611 165.088 363.611 164.103C363.611 163.099 363.462 162.225 363.163 161.481C362.864 160.717 362.386 160.148 361.729 159.772C361.092 159.394 360.246 159.274 359.191 159.413L352.739 160.263V155.443L359.489 154.554C361.46 154.295 363.183 154.51 364.656 155.199C366.13 155.869 367.265 156.914 368.061 158.336C368.878 159.735 369.286 161.408 369.286 163.356C369.286 165.284 368.888 167.064 368.091 168.695C367.295 170.326 366.17 171.68 364.716 172.755C363.263 173.81 361.55 174.467 359.579 174.726ZM356.234 175.167L350.857 175.875V155.69L356.234 154.983V175.167Z" fill="#EBEADC"/>
<path d="M376.564 172.49L371.187 173.198V153.014L378.654 152.031L380.626 157.646L382.388 164.403L384.15 157.182L386.121 151.048L393.588 150.065V170.249L388.212 170.957V165.715L389.078 155.69L386.569 163.852L385.285 167.727L379.491 168.49L378.206 164.953L375.697 157.451L376.564 167.248V172.49Z" fill="#EBEADC"/>
<path d="M9.44864 364.508H0V329.338H9.44864V364.508ZM26.9286 364.508H3.30702V356.109H26.9286V364.508ZM24.304 351.122H3.30702V342.723H24.304V351.122ZM26.9286 337.737H3.30702V329.338H26.9286V337.737Z" fill="#B18A50"/>
<path d="M45.6971 365.033C43.4225 365.033 41.2178 364.805 39.0831 364.35C36.9834 363.895 35.0237 363.213 33.2039 362.303C31.3842 361.393 29.8094 360.238 28.4796 358.839L34.3588 351.227C35.3386 352.417 36.4935 353.414 37.8233 354.219C39.1531 355.024 40.5354 355.637 41.9702 356.057C43.44 356.442 44.8573 356.634 46.2221 356.634C47.0269 356.634 47.7268 356.564 48.3217 356.424C48.9167 356.284 49.3716 356.074 49.6866 355.794C50.0015 355.479 50.159 355.077 50.159 354.587C50.159 353.992 49.949 353.484 49.5291 353.064C49.1091 352.645 48.4267 352.277 47.4819 351.962C46.537 351.612 45.2772 351.297 43.7024 351.017L40.1854 350.335C38.6806 350.055 37.2633 349.67 35.9335 349.18C34.6037 348.655 33.4139 347.99 32.3641 347.185C31.3492 346.345 30.5443 345.331 29.9494 344.141C29.3895 342.951 29.1095 341.516 29.1095 339.836C29.1095 337.457 29.7219 335.462 30.9468 333.852C32.2066 332.207 33.8863 330.983 35.986 330.178C38.1207 329.338 40.4829 328.918 43.0725 328.918C46.502 328.918 49.5466 329.46 52.2062 330.545C54.9008 331.63 57.123 333.047 58.8727 334.797L53.0461 342.304C51.6463 340.834 49.914 339.644 47.8493 338.734C45.8196 337.789 43.8599 337.317 41.9702 337.317C41.3753 337.317 40.8328 337.387 40.3429 337.527C39.853 337.667 39.468 337.877 39.1881 338.157C38.9431 338.437 38.8206 338.787 38.8206 339.206C38.8206 340.186 39.3105 340.904 40.2904 341.359C41.2703 341.814 42.6176 342.234 44.3323 342.618L48.4792 343.563C50.404 343.983 52.0662 344.508 53.466 345.138C54.9008 345.768 56.0906 346.52 57.0355 347.395C57.9804 348.27 58.6803 349.285 59.1352 350.44C59.6251 351.56 59.8701 352.855 59.8701 354.324C59.8701 356.704 59.2402 358.699 57.9804 360.308C56.7555 361.883 55.0758 363.073 52.9411 363.878C50.8064 364.648 48.3917 365.033 45.6971 365.033Z" fill="#B18A50"/>
<path d="M79.2119 364.508H69.7633V329.338H79.2119V364.508ZM89.343 337.737H59.6322V329.338H89.343V337.737Z" fill="#B18A50"/>
<path d="M106.472 364.508H94.4511V356.109H105.947C107.802 356.109 109.271 355.707 110.356 354.902C111.476 354.097 112.281 352.994 112.771 351.595C113.296 350.195 113.558 348.638 113.558 346.923C113.558 345.173 113.296 343.616 112.771 342.251C112.246 340.851 111.406 339.749 110.251 338.944C109.132 338.139 107.644 337.737 105.789 337.737H94.4511V329.338H106.314C109.779 329.338 112.806 330.108 115.396 331.648C117.985 333.152 119.98 335.235 121.38 337.894C122.815 340.519 123.532 343.528 123.532 346.923C123.532 350.282 122.832 353.292 121.432 355.952C120.032 358.611 118.055 360.711 115.501 362.251C112.946 363.755 109.936 364.508 106.472 364.508ZM100.593 364.508H91.1441V329.338H100.593V364.508Z" fill="#B18A50"/>
<path d="M134.35 364.508H124.901V355.532H134.35V364.508Z" fill="#B18A50"/>
</svg>
